<svg viewBox="0 0 800 450" xmlns="http://www.w3.org/2000/svg" fill="none">
  <rect width="800" height="450" rx="4" fill="#09090b"/>
  <rect x="0" y="0" width="800" height="48" fill="#131316"/>
  <text x="24" y="30" fill="#c9a84c" font-family="Georgia,serif" font-size="18" font-weight="700"><tspan fill="#f0ece2">Moto</tspan>Radar</text>
  <rect x="200" y="14" width="80" height="20" rx="3" fill="#1a1a1f"/>
  <rect x="290" y="14" width="80" height="20" rx="3" fill="#1a1a1f"/>
  <rect x="380" y="14" width="80" height="20" rx="3" fill="#1a1a1f"/>
  <rect x="600" y="12" width="120" height="24" rx="3" fill="#c9a84c" opacity="0.15"/>
  <text x="660" y="28" fill="#c9a84c" font-family="sans-serif" font-size="11" text-anchor="middle">Consulta gratis</text>

  <rect x="40" y="72" width="720" height="90" rx="6" fill="#131316" stroke="#222228" stroke-width="1"/>
  <text x="60" y="100" fill="#c9a84c" font-family="sans-serif" font-size="10" letter-spacing="2" text-transform="uppercase">BUSCAR</text>
  <rect x="60" y="110" width="200" height="32" rx="4" fill="#1a1a1f" stroke="#222228"/>
  <text x="72" y="130" fill="#5c5955" font-family="sans-serif" font-size="12">Marca...</text>
  <rect x="280" y="110" width="200" height="32" rx="4" fill="#1a1a1f" stroke="#222228"/>
  <text x="292" y="130" fill="#5c5955" font-family="sans-serif" font-size="12">Modelo...</text>
  <rect x="500" y="110" width="120" height="32" rx="4" fill="#1a1a1f" stroke="#222228"/>
  <text x="512" y="130" fill="#5c5955" font-family="sans-serif" font-size="12">2000 - 15000</text>
  <rect x="640" y="110" width="100" height="32" rx="4" fill="#c9a84c"/>
  <text x="690" y="130" fill="#09090b" font-family="sans-serif" font-size="12" font-weight="600" text-anchor="middle">Buscar</text>

  <rect x="40" y="186" width="168" height="130" rx="6" fill="#131316" stroke="#222228" stroke-width="1"/>
  <rect x="40" y="186" width="168" height="60" rx="6" fill="#1a1a1f"/>
  <text x="124" y="222" fill="#5c5955" font-family="sans-serif" font-size="28" text-anchor="middle">KTM</text>
  <text x="52" y="270" fill="#f0ece2" font-family="sans-serif" font-size="11">KTM 350 EXC-F 2022</text>
  <text x="52" y="290" fill="#c9a84c" font-family="Georgia,serif" font-size="16" font-weight="700">6.200 EUR</text>
  <rect x="52" y="298" width="40" height="12" rx="2" fill="#2a5a2a"/>
  <text x="56" y="307" fill="#4ade80" font-family="sans-serif" font-size="8">CHOLLO</text>

  <rect x="224" y="186" width="168" height="130" rx="6" fill="#131316" stroke="#222228" stroke-width="1"/>
  <rect x="224" y="186" width="168" height="60" rx="6" fill="#1a1a1f"/>
  <text x="308" y="222" fill="#5c5955" font-family="sans-serif" font-size="24" text-anchor="middle">HUSQV</text>
  <text x="236" y="270" fill="#f0ece2" font-family="sans-serif" font-size="11">Husqvarna FE 350 2023</text>
  <text x="236" y="290" fill="#c9a84c" font-family="Georgia,serif" font-size="16" font-weight="700">7.800 EUR</text>

  <rect x="408" y="186" width="168" height="130" rx="6" fill="#131316" stroke="#222228" stroke-width="1"/>
  <rect x="408" y="186" width="168" height="60" rx="6" fill="#1a1a1f"/>
  <text x="492" y="222" fill="#5c5955" font-family="sans-serif" font-size="28" text-anchor="middle">GAS</text>
  <text x="420" y="270" fill="#f0ece2" font-family="sans-serif" font-size="11">Gas Gas EC 300 2021</text>
  <text x="420" y="290" fill="#c9a84c" font-family="Georgia,serif" font-size="16" font-weight="700">5.900 EUR</text>
  <rect x="420" y="298" width="40" height="12" rx="2" fill="#2a5a2a"/>
  <text x="424" y="307" fill="#4ade80" font-family="sans-serif" font-size="8">CHOLLO</text>

  <rect x="592" y="186" width="168" height="130" rx="6" fill="#131316" stroke="#222228" stroke-width="1"/>
  <rect x="592" y="186" width="168" height="60" rx="6" fill="#1a1a1f"/>
  <text x="676" y="222" fill="#5c5955" font-family="sans-serif" font-size="28" text-anchor="middle">BETA</text>
  <text x="604" y="270" fill="#f0ece2" font-family="sans-serif" font-size="11">Beta RR 300 2022</text>
  <text x="604" y="290" fill="#c9a84c" font-family="Georgia,serif" font-size="16" font-weight="700">6.500 EUR</text>

  <rect x="40" y="340" width="720" height="86" rx="6" fill="#131316" stroke="#222228" stroke-width="1"/>
  <text x="60" y="366" fill="#c9a84c" font-family="sans-serif" font-size="10" letter-spacing="2">TENDENCIA DE PRECIOS</text>
  <polyline points="80,410 160,395 240,400 320,385 400,390 480,375 560,380 640,365 720,370" stroke="#c9a84c" stroke-width="2" fill="none" opacity="0.8"/>
  <polyline points="80,410 160,405 240,408 320,398 400,400 480,392 560,395 640,388 720,390" stroke="#5c5955" stroke-width="1" fill="none" stroke-dasharray="4,4"/>
</svg>
